<?xml version="1.0" encoding="UTF-8" standalone="no" ?>
<!DOCTYPE svg PUBLIC "-//W3C//DTD SVG 1.1//EN" "http://www.w3.org/Graphics/SVG/1.1/DTD/svg11.dtd">
<svg xmlns="http://www.w3.org/2000/svg" xmlns:xlink="http://www.w3.org/1999/xlink" version="1.1" width="500" height="500" viewBox="0 0 500 500" xml:space="preserve">
<desc>Created with Fabric.js 4.6.0</desc>
<defs>
</defs>
<g transform="matrix(0 4.09 -4.09 0 260 250)" id="fpzwC0haQNWK5FxEFn9ZS"  >
<path style="stroke: rgb(103,102,102); stroke-width: 3; fill: none;  "  d="M 28.73563 -49.77157 L 57.47126 0 L 28.73563 49.77157 L -28.73563 49.77157 L -57.47126 0 L -28.73563 -49.77157 z"  />
</g>
<g transform="matrix(0.94 -0.4 0.39 0.93 92.03 175.09)" id="I9hhQH3wDCV0OzL3jAZHd"  >
<path style="stroke: rgb(102,102,102);  fill: rgb(163,163,164);  "  d="M -5.8986 -32.84722 C -6.02557 -34.31051 -5.53675 -35.76027 -4.55128 -36.843180000000004 C -3.5658100000000004 -37.92609 -2.1742000000000004 -38.542680000000004 -0.7156100000000003 -38.542680000000004 L 0.6612699999999998 -38.542680000000004 L 0.6612699999999998 -38.542680000000004 C 2.12758 -38.542680000000004 3.52726 -37.92597000000001 4.52237 -36.84145 C 5.51749 -35.756930000000004 6.0176099999999995 -34.30315 5.90198 -32.83112 L 0.2957299999999998 38.542649999999995 L 0.2957299999999998 38.542649999999995 z"  />
</g>
<g transform="matrix(0.94 -0.4 0.39 0.93 429.47 174.99)" id="t-cE3md87v7daBMoMO0TR"  >
<path style="stroke: rgb(102,102,102);  fill: rgb(163,163,164);  "  d="M -5.8986 -32.84722 C -6.02557 -34.31051 -5.53675 -35.76027 -4.55128 -36.843180000000004 C -3.5658100000000004 -37.92609 -2.1742000000000004 -38.542680000000004 -0.7156100000000003 -38.542680000000004 L 0.6612699999999998 -38.542680000000004 L 0.6612699999999998 -38.542680000000004 C 2.12758 -38.542680000000004 3.52726 -37.92597000000001 4.52237 -36.84145 C 5.51749 -35.756930000000004 6.0176099999999995 -34.30315 5.90198 -32.83112 L 0.2957299999999998 38.542649999999995 L 0.2957299999999998 38.542649999999995 z"  />
</g>
<g transform="matrix(3.46 -2.33 0.82 1.21 313.75 350.09)" id="mfscimis3s5U8VDPZeQs9"  >
<path style="stroke: rgb(102,102,102);  fill: rgb(118,118,118);  "  d="M -10.98394 -19.31984 L 8.5277 -19.579269999999998 L 19.89652 19.579250000000005 L -19.89652 18.419930000000004 z"  />
</g>
<g transform="matrix(-3.77 -2.35 0.76 -1.21 203.31 350.22)" id="-gtYoaDNvUYFcYGOmJKy6"  >
<path style="stroke: rgb(102,102,102);  fill: rgb(60,60,60);  "  d="M -19.01092 -19.65436 L 19.01092 -18.269280000000002 L 11.498939999999997 19.591829999999995 L -11.099920000000001 19.654369999999993 z"  />
</g>
<g transform="matrix(0 4.07 -1.38 0 146.44 248.31)" id="yZQaw6yB89LNpXuP3qmMI"  >
<path style="stroke: rgb(102,102,102);  fill: rgb(109,109,109);  "  d="M -11.47182 -19.17052 L 12.57417 -20.58779 L 19.54023 20.58779 L -19.54023 20.58779 z"  />
</g>
<g transform="matrix(-3.6 -2.08 0.72 -1.24 329.17 162.55)" id="1TLOf6gFhG08d0iPwC3JG"  >
<path style="stroke: rgb(102,102,102);  fill: rgb(102,102,104);  "  d="M -8.34729 -20.1619 L 15.70378 -17.61892 L 7.94586 20.161890000000003 L -15.703780000000002 19.719940000000005 z"  />
</g>
<g transform="matrix(3.52 -2.03 0.73 1.27 216.41 145.01)" id="d12xQbTMepRaf2hIkjhvi"  >
<path style="stroke: rgb(102,102,102);  fill: rgb(150,148,148);  "  d="M -23.96213 -19.45329 L 16.15537 -17.940749999999998 L 23.962130000000002 19.45329 L -16.307319999999997 18.442239999999998 z"  />
</g>
<g transform="matrix(3.27 0.88 -0.35 1.3 340.93 282.46)" id="8mvKQVvcY5O-YsHX_wTZR"  >
<path style="stroke: rgb(102,102,102);  fill: rgb(155,155,155);  "  d="M -19.83406 -21.0854 L 16.400039999999997 -16.30572 L 19.834049999999998 21.0854 L -15.842510000000004 19.06825 z"  />
</g>
</svg>