<?xml version="1.0" encoding="UTF-8" standalone="no" ?>
<svg xmlns="http://www.w3.org/2000/svg" version="1.1" width="500" height="500" viewBox="0 0 500 500" xml:space="preserve">
<g transform="matrix(1 0 0 1 249.73 250.02)" id="Xd3bUpgQPN0BHBT2K-9P7"  >
<path style="stroke: rgb(238,238,238); stroke-width: 1; stroke-dasharray: none; stroke-linecap: butt; stroke-dashoffset: 0; stroke-linejoin: miter; stroke-miterlimit: 4; fill: rgb(0,0,0); fill-rule: nonzero; opacity: 1;" vector-effect="non-scaling-stroke"  transform=" translate(-243.63, -243.63)" d="M 243.62745 0 C 378.1098 0 487.2549 109.1451 487.2549 243.62745 C 487.2549 378.1098 378.1098 487.2549 243.62745 487.2549 C 109.14510000000001 487.2549 0 378.1098 0 243.62745 C 0 109.14510000000001 109.1451 0 243.62745 0 z" stroke-linecap="round" />
</g>
<g transform="matrix(3.13 -2.11 0.7 1.04 321.93 338.07)" id="xfRqhtUfKj0W5zrIPMfz-"  >
<path style="stroke: rgb(102,102,102); stroke-width: 0; stroke-dasharray: none; stroke-linecap: butt; stroke-dashoffset: 0; stroke-linejoin: miter; stroke-miterlimit: 4; fill: rgb(121,121,121); fill-rule: nonzero; opacity: 1;" vector-effect="non-scaling-stroke"  transform=" translate(0, 0)" d="M -12.37114 -18.83185 C -12.12979 -19.903309999999998 -11.72176 -20.52907 -11.29036 -20.4893 L 8.04625 -18.70654 L 8.04625 -18.70654 C 8.421560000000001 -18.67194 8.77501 -18.16982 9.021360000000001 -17.32128 L 19.661250000000003 19.32656 L 19.661250000000003 19.32656 C 19.721880000000002 19.535410000000002 19.735970000000002 19.83134 19.697240000000004 20.0826 C 19.658510000000003 20.33387 19.574160000000003 20.49374 19.481750000000005 20.491049999999998 L -7.952349999999996 19.691799999999997 L -18.950259999999993 17.04734 L -18.950259999999993 17.04734 C -19.246249999999993 16.97617 -19.507389999999994 16.43987 -19.636189999999992 15.638659999999998 C -19.76498999999999 14.837439999999997 -19.74207999999999 13.891719999999998 -19.576029999999992 13.154529999999998 z" stroke-linecap="round" />
</g>
<g transform="matrix(-4.96 -3.1 0.68 -1.09 203.24 327.24)" id="2AcY3wwxI83MpeDQ2gxww"  >
<path style="stroke: rgb(102,102,102); stroke-width: 0; stroke-dasharray: none; stroke-linecap: butt; stroke-dashoffset: 0; stroke-linejoin: miter; stroke-miterlimit: 4; fill: rgb(211,211,211); fill-rule: nonzero; opacity: 1;" vector-effect="non-scaling-stroke"  transform=" translate(0, 0)" d="M -16.51778 -18.06742 C -16.354899999999997 -19.515469999999997 -16.024929999999998 -20.415419999999997 -15.667319999999998 -20.38692 L 20.066010000000006 -17.53912 L 20.066010000000006 -17.53912 C 20.240900000000007 -17.52518 20.397870000000005 -17.04788 20.467530000000007 -16.31823 C 20.537190000000006 -15.58858 20.506690000000006 -14.74114 20.38951000000001 -14.150559999999999 L 13.76017000000001 19.26195 L 13.76017000000001 19.26195 C 13.61654000000001 19.98584 13.411650000000009 20.395519999999998 13.197260000000009 20.38747 L -20.19536999999999 19.13372 L -20.19536999999999 19.13372 C -20.303429999999988 19.12966 -20.40330999999999 18.87133 -20.45931999999999 18.451060000000002 C -20.51532999999999 18.030790000000003 -20.51946999999999 17.508570000000002 -20.47024999999999 17.071060000000003 z" stroke-linecap="round" />
</g>
<g transform="matrix(-3.26 -1.88 0.65 -1.12 333.07 168.17)" id="RcKIYjN2ho_V-P8qL3l8T"  >
<path style="stroke: rgb(102,102,102); stroke-width: 0; stroke-dasharray: none; stroke-linecap: butt; stroke-dashoffset: 0; stroke-linejoin: miter; stroke-miterlimit: 4; fill: rgb(126,126,126); fill-rule: nonzero; opacity: 1;" vector-effect="non-scaling-stroke"  transform=" translate(0, 0)" d="M -9.33909 -16.50539 C -8.91778 -18.78944 -8.08741 -20.176879999999997 -7.198030000000001 -20.082839999999997 L 15.4002 -17.693469999999998 L 7.6422799999999995 20.087340000000005 L -14.495740000000001 19.673640000000006 L -14.495740000000001 19.673640000000006 C -14.81497 19.667670000000005 -15.109800000000002 19.174930000000007 -15.272730000000001 18.375080000000008 C -15.43566 17.57522000000001 -15.44288 16.585150000000006 -15.29175 15.765850000000007 z" stroke-linecap="round" />
</g>
<g transform="matrix(4.32 -2.5 0.67 1.15 207.05 168.17)" id="XJmS9XRi7HJxBaKQZdTTy"  >
<path style="stroke: rgb(102,102,102); stroke-width: 0; stroke-dasharray: none; stroke-linecap: butt; stroke-dashoffset: 0; stroke-linejoin: miter; stroke-miterlimit: 4; fill: rgb(211,211,211); fill-rule: nonzero; opacity: 1;" vector-effect="non-scaling-stroke"  transform=" translate(0, 0)" d="M -23.43963 -15.04027 C -23.60752 -15.8714 -23.63476 -16.98858 -23.50985 -17.92024 C -23.38495 -18.8519 -23.12966 -19.43571 -22.85175 -19.42523 L 14.741600000000002 -18.007849999999998 L 14.741600000000002 -18.007849999999998 C 15.398440000000003 -17.983089999999997 16.016650000000002 -16.839059999999996 16.421740000000003 -14.898669999999997 L 23.587580000000003 19.42537 L -16.0721 18.42963 L -16.0721 18.42963 C -16.45655 18.41998 -16.81798 17.74049 -17.05023 16.59076 z" stroke-linecap="round" />
</g>
<g transform="matrix(2.96 0.79 -0.32 1.18 347.42 277.33)" id="X6IVX52yBI1nglq1AU0OD"  >
<path style="stroke: rgb(102,102,102); stroke-width: 0; stroke-dasharray: none; stroke-linecap: butt; stroke-dashoffset: 0; stroke-linejoin: miter; stroke-miterlimit: 4; fill: rgb(223,223,223); fill-rule: nonzero; opacity: 1;" vector-effect="non-scaling-stroke"  transform=" translate(0, 0)" d="M -19.49378 -18.06514 C -19.564970000000002 -18.781299999999998 -19.49668 -19.5398 -19.309720000000002 -20.1094 C -19.122760000000003 -20.679000000000002 -18.8393 -20.99218 -18.54576 -20.95346 L 15.10302 -16.51481 L 15.10302 -16.51481 C 15.89264 -16.41065 16.559250000000002 -15.00554 16.73694 -13.070780000000001 L 19.48746 16.878149999999998 L 19.48746 16.878149999999998 C 19.579449999999998 17.879779999999997 19.48208 18.931959999999997 19.22363 19.72909 C 18.96518 20.52622 18.57461 20.97896 18.16536 20.95582 L -15.214109999999998 19.06855 L -15.214109999999998 19.06855 C -15.563479999999998 19.0488 -15.864439999999998 18.444709999999997 -15.949069999999997 17.59329 z" stroke-linecap="round" />
</g>
</svg>